<?xml version="1.0" encoding="UTF-8" standalone="no"?>
<!-- Created with Inkscape (http://www.inkscape.org/) -->

<svg
   width="500"
   height="500"
   viewBox="0 0 132.29166 132.29167"
   version="1.1"
   id="svg5"
   xml:space="preserve"
   inkscape:version="1.2.2 (b0a8486541, 2022-12-01)"
   sodipodi:docname="afasode.svg"
   inkscape:export-filename="afasode.png"
   inkscape:export-xdpi="384"
   inkscape:export-ydpi="384"
   xmlns:inkscape="http://www.inkscape.org/namespaces/inkscape"
   xmlns:sodipodi="http://sodipodi.sourceforge.net/DTD/sodipodi-0.dtd"
   xmlns="http://www.w3.org/2000/svg"
   xmlns:svg="http://www.w3.org/2000/svg"><sodipodi:namedview
     id="namedview7"
     pagecolor="#ffffff"
     bordercolor="#000000"
     borderopacity="0.25"
     inkscape:showpageshadow="2"
     inkscape:pageopacity="0.0"
     inkscape:pagecheckerboard="0"
     inkscape:deskcolor="#d1d1d1"
     inkscape:document-units="mm"
     showgrid="false"
     inkscape:zoom="1.3932941"
     inkscape:cx="76.437559"
     inkscape:cy="252.63869"
     inkscape:window-width="1920"
     inkscape:window-height="1011"
     inkscape:window-x="0"
     inkscape:window-y="0"
     inkscape:window-maximized="1"
     inkscape:current-layer="layer1" /><defs
     id="defs2" /><g
     inkscape:label="Layer 1"
     inkscape:groupmode="layer"
     id="layer1"><path
       style="opacity:1;fill:#2c5ea6;fill-opacity:1;stroke:#000000;stroke-width:0.291457;stroke-dasharray:none;stroke-opacity:1"
       d="m 25.801737,81.653412 -3.40597,2.038286 c 0,0 -1.41975,1.14888 -4.779969,3.0752 -2.967544,1.701206 -3.887859,-0.561881 -3.887859,-0.561881 L 5.788848,75.763871 c 0,0 1.1885315,2.028295 -3.4675015,-4.802465 -2.44245787,-5.132787 0.018485,-6.401866 0.018485,-6.401866 l 7.3959051,-4.927311 z"
       id="path5268-6"
       sodipodi:nodetypes="ccscccccc" /><path
       style="opacity:1;fill:#7eb513;fill-opacity:1;stroke:#000000;stroke-width:0.291457;stroke-dasharray:none;stroke-opacity:1"
       d="m 80.660333,106.81836 2.229023,3.19709 c 0,0 1.241895,1.32401 3.352575,4.48061 1.864026,2.78774 -0.474451,3.73324 -0.474451,3.73324 l -10.681806,7.89295 c 0,0 2.085309,-1.19513 -4.918495,3.45435 -5.29346,2.48396 -6.691163,0.16803 -6.691163,0.16803 l -5.364114,-6.92782 z"
       id="path5268-6-5"
       sodipodi:nodetypes="ccscccccc" /><path
       style="opacity:1;fill:#db7a00;fill-opacity:1;stroke:#000000;stroke-width:0.291457;stroke-dasharray:none;stroke-opacity:1"
       d="m 105.99606,52.8527 3.3982,-2.050075 c 0,0 1.41539,-1.153801 4.76829,-3.091754 2.96107,-1.711487 3.88996,0.548397 3.88996,0.548397 l 7.97863,10.41355 c 0,0 -1.19622,-2.024167 3.48566,4.790409 2.4619,5.124286 0.005,6.40189 0.005,6.40189 l -7.37718,4.952922 z"
       id="path5268-6-5-3"
       sodipodi:nodetypes="ccscccccc" /><path
       style="opacity:1;fill:#98007f;fill-opacity:1;stroke:#000000;stroke-width:0.291457;stroke-dasharray:none;stroke-opacity:1"
       d="m 50.983799,26.508946 -2.182781,-3.226152 c 0,0 -1.222715,-1.340232 -3.287749,-4.524339 -1.823722,-2.812005 0.528142,-3.726629 0.528142,-3.726629 L 56.835834,7.280305 c 0,0 -2.102322,1.1675471 4.967759,-3.389252 5.328717,-2.4140224 6.692955,-0.079704 6.692955,-0.079704 l 5.263868,6.997796 z"
       id="path5268-6-5-3-5"
       sodipodi:nodetypes="ccscccccc" /><path
       style="opacity:1;fill:#96007f;fill-opacity:1;stroke:#000000;stroke-width:0.288384;stroke-dasharray:none;stroke-opacity:1"
       d="m 69.999154,52.978375 c 6.710804,7.85166 -1.965562,7.255455 0.160799,11.011842 6.844545,12.091446 7.63439,-0.121049 7.978313,0.4511 2.056833,3.421735 20.569343,28.647873 20.569343,28.647873 3.817511,-0.159946 3.770261,-2.664058 3.423071,-5.724358 2.51427,1.13107 6.82759,3.078524 6.48441,-3.535665 1.12032,0.19778 7.54627,3.366658 5.50597,-4.411775 2.92054,1.602848 6.37455,2.115196 6.24964,-2.703443 L 92.321569,36.846278 Z"
       id="path10793"
       sodipodi:nodetypes="cssccccccc" /><path
       style="opacity:1;fill:#db7c02;fill-opacity:1;stroke:#000000;stroke-width:0.294759;stroke-dasharray:none;stroke-opacity:1"
       d="m 79.699652,70.942356 c -8.154863,6.706357 -7.416416,-2.11551 -11.302035,-0.01067 -12.507425,6.775381 0.01277,7.772641 -0.579356,8.113649 -3.541203,2.0394 -29.696989,20.483211 -29.696989,20.483211 0.108407,3.888214 2.678664,3.879744 5.824027,3.574794 -1.197339,2.54127 -3.258666,6.90081 3.533424,6.65617 -0.219302,1.1372 -3.564816,7.62776 4.446728,5.67414 -1.687385,2.9473 -2.26354,6.45493 2.682875,6.40404 L 95.927578,93.918755 Z"
       id="path10793-6"
       sodipodi:nodetypes="cssccccccc" /><path
       style="opacity:1;fill:#7eb513;fill-opacity:1;stroke:#000000;stroke-width:0.293;stroke-dasharray:none;stroke-opacity:1"
       d="m 62.995221,80.57747 c -6.82618,-7.90342 2.199879,-7.148263 0.0636,-10.908833 -6.876524,-12.104907 -7.955633,-0.02504 -8.301908,-0.5982 C 52.686031,65.64262 33.930078,40.30804 33.930078,40.30804 c -3.980224,0.08594 -3.983547,2.56684 -3.686084,5.604251 -2.595518,-1.167903 -7.048042,-3.178477 -6.829316,3.378518 -1.162932,-0.217137 -7.790658,-3.477472 -5.828437,4.264771 -3.008787,-1.642852 -6.596284,-2.215822 -6.56726,2.558772 l 28.383402,40.016109 z"
       id="path10793-6-2"
       sodipodi:nodetypes="cssccccccc" /><path
       style="opacity:1;fill:#2c5ea6;fill-opacity:1;stroke:#000000;stroke-width:0.278447;stroke-dasharray:none;stroke-opacity:1"
       d="m 52.972713,62.032145 c 7.562909,-6.513804 7.114104,1.777056 10.749006,-0.304233 11.70039,-6.699521 -0.235472,-7.286338 0.317856,-7.622492 C 67.3488,52.095075 91.69406,34.077169 91.69406,34.077169 c -0.21482,-3.642101 -2.659003,-3.562708 -5.641606,-3.189375 1.065696,-2.415696 2.900833,-6.559978 -3.551691,-6.141797 0.175889,-1.07219 3.171111,-7.249978 -4.392058,-5.195779 1.520083,-2.80994 1.967241,-6.114289 -2.735542,-5.92906 L 36.879086,40.943401 Z"
       id="path10793-6-2-9"
       sodipodi:nodetypes="cssccccccc" /></g></svg>
