<?xml version="1.0" encoding="UTF-8" standalone="no"?>
<!-- Created with Inkscape (http://www.inkscape.org/) -->

<svg
   width="120"
   height="120"
   viewBox="0 0 120 120"
   version="1.1"
   id="svg5"
   sodipodi:docname="burguillos-new-logo.svg"
   inkscape:version="1.2.2 (b0a8486541, 2022-12-01)"
   xmlns:inkscape="http://www.inkscape.org/namespaces/inkscape"
   xmlns:sodipodi="http://sodipodi.sourceforge.net/DTD/sodipodi-0.dtd"
   xmlns="http://www.w3.org/2000/svg"
   xmlns:svg="http://www.w3.org/2000/svg">
  <sodipodi:namedview
     id="namedview7"
     pagecolor="#ffffff"
     bordercolor="#000000"
     borderopacity="0.25"
     inkscape:showpageshadow="2"
     inkscape:pageopacity="0.0"
     inkscape:pagecheckerboard="0"
     inkscape:deskcolor="#d1d1d1"
     inkscape:document-units="px"
     showgrid="false"
     inkscape:lockguides="true"
     showguides="true"
     inkscape:zoom="2.5077712"
     inkscape:cx="178.04655"
     inkscape:cy="123.21698"
     inkscape:window-width="1920"
     inkscape:window-height="1011"
     inkscape:window-x="0"
     inkscape:window-y="0"
     inkscape:window-maximized="1"
     inkscape:current-layer="layer1">
    <sodipodi:guide
       position="100.2046,119.69309"
       orientation="0,-1"
       id="guide340"
       inkscape:locked="true" />
  </sodipodi:namedview>
  <defs
     id="defs2">
    <rect
       x="41.461152"
       y="93.53679"
       width="37.739418"
       height="19.063561"
       id="rect5477" />
  </defs>
  <g
     inkscape:label="Layer 1"
     inkscape:groupmode="layer"
     id="layer1">
    <path
       style="fill:#f2eb8c;fill-opacity:1;stroke:#8a2be2;stroke-width:3.484;stroke-dasharray:none;stroke-opacity:1"
       d="M 18.028375,5.4640185 C 42.094397,30.546849 65.895567,57.555797 100.66537,4.7964555 145.1512,107.0612 80.481309,117.61217 55.748703,118.50187 1.2161504,117.12284 -2.3973578,49.141609 18.028375,5.4640185 Z"
       id="path4249"
       sodipodi:nodetypes="cccc" />
    <path
       style="fill:#8a2be2;fill-opacity:1;stroke:#000000;stroke-width:1.384;stroke-dasharray:none;stroke-opacity:0"
       d="m 5.4562907,48.131587 16.9515953,2.646472 80.760414,-2.732742 12.66696,-2.341596 c -2.52037,4.648697 -14.13367,1.691364 -13.49252,8.46198 -5.289214,30.302815 -33.601819,26.392297 -40.414884,8.262841 -4.932324,20.706136 -36.860998,22.078604 -40.624478,-6.767299 -6.19213,-6.378384 -9.17335,-1.03443 -15.8470873,-7.529656 z"
       id="path4953"
       sodipodi:nodetypes="cccccccc" />
    <ellipse
       style="fill:#8a2be2;fill-opacity:1;stroke:#000000;stroke-width:1.384;stroke-dasharray:none;stroke-opacity:0"
       id="path5421"
       cx="62.994671"
       cy="84.6521"
       rx="5.6541939"
       ry="4.5791979" />
    <g
       aria-label="I"
       id="text5475"
       style="white-space:pre;shape-inside:url(#rect5477);fill:#8a2be2;fill-opacity:1;stroke:#000000;stroke-width:1.384;stroke-opacity:0"
       transform="matrix(3.5861402,4.1249427,-5.3819574,-0.03340189,444.68697,-83.677722)">
      <path
         d="m 41.396887,94.882854 c 1.567507,0.797149 3.149084,1.398094 4.856457,0.244691 l 0.207593,1.509564 -2,0 v 7.000001 l 2,0 0.428485,1.81474 c -1.67887,-1.50698 -3.974878,-1.43873 -5.631335,-0.17796 l 0.20285,-1.63678 h 2 v -7.000001 l -2,0 z"
         style="font-size:12px;font-family:Bangwool;-inkscape-font-specification:'Bangwool, Normal';fill:#8a2be2;fill-opacity:1"
         id="path5531"
         sodipodi:nodetypes="ccccccccccccc" />
    </g>
    <path
       style="fill:#ffffff;fill-opacity:1;stroke:#8a2be2;stroke-width:0"
       d="m 83.352687,48.858635 4.493011,-0.207345 3.889977,24.19843 c -1.014452,1.129583 -0.364441,1.088447 -3.85005,2.494465 1.322091,-16.17219 -1.906635,-20.548093 -4.532938,-26.48555 z"
       id="path240"
       sodipodi:nodetypes="ccccc" />
    <path
       style="fill:#ffffff;fill-opacity:1;stroke:#8a2be2;stroke-width:0"
       d="m 43.326423,50.433596 4.493011,-0.207345 3.889977,24.19843 c -1.014452,1.129583 -0.364441,1.088447 -3.85005,2.494465 1.322091,-16.17219 -1.906635,-20.548093 -4.532938,-26.48555 z"
       id="path240-5"
       sodipodi:nodetypes="ccccc" />
    <path
       style="fill:#ffffff;fill-opacity:1;stroke:#8a2be2;stroke-width:0"
       d="m 92.880587,48.523807 2.506267,-0.152337 2.543723,18.181741 c -0.565875,0.82991 -0.218477,1.571117 -2.162801,2.604125 0.737482,-11.881782 -1.422198,-16.271252 -2.887189,-20.633529 z"
       id="path240-6"
       sodipodi:nodetypes="ccccc" />
    <path
       style="fill:#ffffff;fill-opacity:1;stroke:#8a2be2;stroke-width:0"
       d="m 54.088088,49.92862 2.506267,-0.152337 2.543723,18.181741 c -0.565875,0.82991 -0.218477,1.571117 -2.162801,2.604125 C 57.712759,58.680367 55.553079,54.290897 54.088088,49.92862 Z"
       id="path240-6-7"
       sodipodi:nodetypes="ccccc" />
  </g>
</svg>
