<?xml version="1.0" encoding="UTF-8" standalone="no"?>
<!-- Created with Inkscape (http://www.inkscape.org/) -->

<svg
   width="503"
   height="503"
   viewBox="0 0 133.08626 133.08625"
   version="1.1"
   id="svg5"
   xml:space="preserve"
   inkscape:version="1.2.2 (b0a8486541, 2022-12-01)"
   sodipodi:docname="burguillos-new-logo.svg"
   xmlns:inkscape="http://www.inkscape.org/namespaces/inkscape"
   xmlns:sodipodi="http://sodipodi.sourceforge.net/DTD/sodipodi-0.dtd"
   xmlns="http://www.w3.org/2000/svg"
   xmlns:svg="http://www.w3.org/2000/svg"><sodipodi:namedview
     id="namedview7"
     pagecolor="#ffffff"
     bordercolor="#000000"
     borderopacity="0.25"
     inkscape:showpageshadow="2"
     inkscape:pageopacity="0.0"
     inkscape:pagecheckerboard="0"
     inkscape:deskcolor="#d1d1d1"
     inkscape:document-units="mm"
     showgrid="false"
     inkscape:zoom="1.1336483"
     inkscape:cx="98.796072"
     inkscape:cy="173.77523"
     inkscape:window-width="1920"
     inkscape:window-height="1011"
     inkscape:window-x="0"
     inkscape:window-y="0"
     inkscape:window-maximized="1"
     inkscape:current-layer="layer1" /><defs
     id="defs2"><rect
       x="191.8733"
       y="296.26283"
       width="89.250046"
       height="103.92693"
       id="rect4068" /><rect
       x="139.23143"
       y="151.75457"
       width="247.98071"
       height="75.725623"
       id="rect5849" /></defs><g
     inkscape:label="Layer 1"
     inkscape:groupmode="layer"
     id="layer1"><path
       style="fill:#e7e199;fill-opacity:1;stroke:#8400b4;stroke-width:3.02464;stroke-dasharray:none;stroke-opacity:1"
       d="M 4.382328,44.170236 C -14.501441,159.23929 144.81859,161.44177 127.99139,41.579437 L 130.22063,1.8082675 100.59132,9.5135469 C 89.075869,-0.34451613 51.5609,-6.3033073 29.763279,11.761509 L 0.13324469,2.1825717 Z"
       id="path3088"
       sodipodi:nodetypes="ccccccc" /><path
       style="fill:#8400b4;fill-opacity:1;stroke:#8400b4;stroke-width:2.69074;stroke-dasharray:none;stroke-opacity:0.00202613"
       d="m 109.39437,21.38808 c 10.17233,-3.651805 11.79978,-4.03798 17.90192,-10.384141 -4.11202,12.185914 -1.04993,13.987938 -2.00147,26.173853 C 119.86335,26.145156 118.23144,24.73462 109.39437,21.38808 Z"
       id="path4962"
       sodipodi:nodetypes="cccc" /><path
       style="fill:#505050;fill-opacity:1;stroke:#8400b4;stroke-width:3.14877;stroke-dasharray:none"
       d="m 105.85092,41.330708 c 0,0 -20.231039,0.289451 -39.706761,1.411865 -18.531628,1.068005 -29.845762,0.475448 -45.310525,0.917804 2.163569,4.772623 1.116786,11.925057 3.654826,15.585017 4.132782,16.890874 25.228357,20.487917 41.164887,-10.025023 15.302386,28.384252 34.899773,24.310138 39.682103,8.127622 z"
       id="path352"
       sodipodi:nodetypes="csccccc" /><path
       style="fill:#8400b4;fill-opacity:1;stroke:#8400b4;stroke-width:2.81509;stroke-dasharray:none;stroke-opacity:0"
       d="m 63.06294,73.764014 c 2.548288,-2.35946 5.149269,-2.419301 7.808334,0.05587 2.862916,2.741577 1.159938,4.534018 0.187575,6.478337 -2.684592,1.213779 -5.371205,2.126478 -8.078453,-0.03484 -2.914997,-3.280195 -1.586103,-4.954079 0.08254,-6.499366 z"
       id="path354"
       sodipodi:nodetypes="cccccc" /><path
       style="fill:#8400b4;fill-opacity:1;stroke:#8400b4;stroke-width:2.70604;stroke-dasharray:none"
       d="m 4.793546,42.249253 14.119908,1.426665 3.459509,9.908445 C 22.646721,47.690204 11.464728,39.903918 4.793546,42.249253 Z"
       id="path2078"
       sodipodi:nodetypes="cccc" /><path
       style="fill:#8400b4;fill-opacity:1;stroke:#8400b4;stroke-width:2.70604;stroke-dasharray:none"
       d="m 108.7079,41.421546 20.00308,1.531137 c -7.14592,-2.667153 -22.20703,2.567519 -22.55966,7.978452 z"
       id="path2548"
       sodipodi:nodetypes="cccc" /><text
       xml:space="preserve"
       transform="scale(0.264585)"
       id="text4066"
       style="font-size:66.6667px;font-family:monospace;-inkscape-font-specification:'monospace, Normal';white-space:pre;shape-inside:url(#rect4068);display:inline;fill:#8400b4;fill-opacity:1;stroke:#8400b4;stroke-width:7.3474;stroke-dasharray:none" /><g
       aria-label="I"
       id="text4074"
       style="font-size:17.639px;font-family:monospace;-inkscape-font-specification:'monospace, Normal';fill:#8400b4;stroke:#8400b4;stroke-width:0;stroke-dasharray:none"
       transform="matrix(0.0143326,-2.9138852,5.7034495,0.09621834,-439.16203,297.77877)"><path
         d="m 66.679841,82.994232 c 2.381995,1.581619 4.575062,1.905561 7.065255,-0.25196 l 0.18302,1.341457 -2.406251,1.457832 0.728126,6.030876 2.89474,1.428538 0.18302,1.341457 c -2.641769,-1.606377 -4.989461,-1.478805 -7.065255,0.25196 l -0.18302,-1.341457 2.391611,-1.523784 -0.588912,-6.129116 -3.019314,-1.264346 z"
         id="path4076"
         style="stroke-width:0;stroke-dasharray:none"
         sodipodi:nodetypes="ccccccccccccc" /></g></g></svg>
