<?xml version="1.0" encoding="UTF-8" standalone="no"?>
<!-- Created with Inkscape (http://www.inkscape.org/) -->

<svg
   width="503"
   height="503"
   viewBox="0 0 133.08626 133.08625"
   version="1.1"
   id="svg5"
   xml:space="preserve"
   inkscape:version="1.2.2 (b0a8486541, 2022-12-01)"
   sodipodi:docname="burguillos-new-logo.svg"
   xmlns:inkscape="http://www.inkscape.org/namespaces/inkscape"
   xmlns:sodipodi="http://sodipodi.sourceforge.net/DTD/sodipodi-0.dtd"
   xmlns="http://www.w3.org/2000/svg"
   xmlns:svg="http://www.w3.org/2000/svg"><sodipodi:namedview
     id="namedview7"
     pagecolor="#ffffff"
     bordercolor="#000000"
     borderopacity="0.25"
     inkscape:showpageshadow="2"
     inkscape:pageopacity="0.0"
     inkscape:pagecheckerboard="0"
     inkscape:deskcolor="#d1d1d1"
     inkscape:document-units="mm"
     showgrid="false"
     inkscape:zoom="1.3932941"
     inkscape:cx="424.53349"
     inkscape:cy="274.1704"
     inkscape:window-width="1920"
     inkscape:window-height="1011"
     inkscape:window-x="0"
     inkscape:window-y="0"
     inkscape:window-maximized="1"
     inkscape:current-layer="layer1" /><defs
     id="defs2"><rect
       x="139.23143"
       y="151.75457"
       width="247.98071"
       height="75.725623"
       id="rect5849" /></defs><g
     inkscape:label="Layer 1"
     inkscape:groupmode="layer"
     id="layer1"><path
       style="fill:#e7e199;fill-opacity:1;stroke:#8400b4;stroke-width:2.16901;stroke-dasharray:none;stroke-opacity:1"
       d="m 27.079878,45.918444 c -7.58595,12.256271 -7.79018,28.382467 1.918861,41.874385 13.858561,19.258191 39.471681,21.761031 39.471681,21.761031 14.179184,-0.30567 32.2061,-6.99075 40.86963,-21.493101 5.87864,-9.840573 7.88717,-23.049909 -0.24759,-41.198755 l 5.66136,-34.193671 -33.975578,7.115275 c -7.239777,-3.04064 -11.657461,-3.00772 -19.61893,-0.213637 L 26.102196,12.65053 Z"
       id="path3088"
       sodipodi:nodetypes="cscscccccc" /><path
       style="fill:#8400b4;fill-opacity:1;stroke:#8400b4;stroke-width:2.16901;stroke-dasharray:none;stroke-opacity:0.00202613"
       d="m 85.24717,23.020327 24.90347,-6.5078 -4.44536,23.992892 z"
       id="path4962" /><path
       style="fill:#000000;fill-opacity:0;stroke:#8400b4;stroke-width:2.82816;stroke-dasharray:none"
       d="M 28.27396,55.870204 28.759111,78.547647 40.919263,73.783646 30.853186,70.638506 39.67723,59.51037 Z"
       id="path352" /><path
       style="fill:#000000;fill-opacity:0;stroke:#8400b4;stroke-width:1.64858"
       d="m 45.976678,75.2918 2.550224,-2.435693 1.351544,2.263037 -2.737802,2.170473 z"
       id="path354" /><path
       style="fill:#000000;fill-opacity:0;stroke:#8400b4;stroke-width:2.63215"
       d="m 51.939638,61.748437 12.673771,-0.27739 h -6.400381 l 1.151006,14.361502 -6.438478,0.36657 13.172502,-0.950901"
       id="path356" /><path
       style="fill:#000000;fill-opacity:0;stroke:#8400b4;stroke-width:3.01048"
       d="M 73.22782,76.689607 70.207266,64.96019 82.424851,72.732691 79.693647,61.536292"
       id="path358" /><path
       style="fill:#000000;fill-opacity:0;stroke:#8400b4;stroke-width:2.53388"
       d="m 97.911689,61.50783 -12.661461,1.345325 2.16392,6.806336 11.429001,-1.480573 -11.154641,1.415187 1.17052,6.114865"
       id="path362" /><path
       style="fill:#000000;fill-opacity:0;stroke:#8400b4;stroke-width:2.64703"
       d="m 100.30805,62.173984 h 9.69333 l 0.40771,10.273945 -9.15263,-0.576022 z"
       id="path364" /></g></svg>
