<?xml version="1.0" encoding="UTF-8" standalone="no"?>
<!-- Created with Inkscape (http://www.inkscape.org/) -->

<svg
   width="503"
   height="503"
   viewBox="0 0 133.08626 133.08625"
   version="1.1"
   id="svg5"
   xml:space="preserve"
   inkscape:version="1.2.2 (b0a8486541, 2022-12-01)"
   sodipodi:docname="burguillos-new-logo.svg"
   xmlns:inkscape="http://www.inkscape.org/namespaces/inkscape"
   xmlns:sodipodi="http://sodipodi.sourceforge.net/DTD/sodipodi-0.dtd"
   xmlns="http://www.w3.org/2000/svg"
   xmlns:svg="http://www.w3.org/2000/svg"><sodipodi:namedview
     id="namedview7"
     pagecolor="#ffffff"
     bordercolor="#000000"
     borderopacity="0.25"
     inkscape:showpageshadow="2"
     inkscape:pageopacity="0.0"
     inkscape:pagecheckerboard="0"
     inkscape:deskcolor="#d1d1d1"
     inkscape:document-units="mm"
     showgrid="false"
     inkscape:zoom="0.49260385"
     inkscape:cx="508.52221"
     inkscape:cy="261.87371"
     inkscape:window-width="1920"
     inkscape:window-height="1011"
     inkscape:window-x="0"
     inkscape:window-y="0"
     inkscape:window-maximized="1"
     inkscape:current-layer="layer1" /><defs
     id="defs2"><rect
       x="191.8733"
       y="296.26283"
       width="89.250046"
       height="103.92693"
       id="rect4068" /><rect
       x="139.23143"
       y="151.75457"
       width="247.98071"
       height="75.725623"
       id="rect5849" /></defs><g
     inkscape:label="Layer 1"
     inkscape:groupmode="layer"
     id="layer1"><path
       style="fill:#e7e199;fill-opacity:1;stroke:#8400b4;stroke-width:3.05164;stroke-dasharray:none;stroke-opacity:1"
       d="M 5.7863186,52.207628 C -22.012164,157.6448 154.41228,155.66374 127.36304,54.668727 L 132.11332,3.8374652 92.997827,20.006012 C 80.297148,14.321987 52.188554,14.348872 40.660948,19.087459 L 5.2800912,3.8128335 Z"
       id="path3088"
       sodipodi:nodetypes="ccccccc" /><path
       style="fill:#8400b4;fill-opacity:1;stroke:#8400b4;stroke-width:3.01922;stroke-dasharray:none;stroke-opacity:0.00202613"
       d="M 98.811394,21.454347 C 111.71544,17.829834 122.06344,13.349308 129.80427,7.0505755 124.58799,19.145417 124.85471,31.24026 123.64764,43.335102 120.44183,32.877872 117.49746,25.776147 98.811394,21.454347 Z"
       id="path4962"
       sodipodi:nodetypes="cccc" /><path
       style="fill:#505050;fill-opacity:1;stroke:#8400b4;stroke-width:3.14877;stroke-dasharray:none"
       d="M 108.20765,43.212212 C 84.047928,57.848404 51.15628,30.725107 23.738987,43.342514 34.019992,50.227809 37.853543,59.25761 35.823599,70.237689 47.879623,70.919345 63.722117,68.072214 64.406596,47.75889 70.952206,59.817138 73.121801,70.398577 94.285795,68.588935 92.563169,59.237928 99.494167,51.10012 108.20765,43.212209 Z"
       id="path352"
       sodipodi:nodetypes="cccccc" /><path
       style="fill:#000000;fill-opacity:0;stroke:#8400b4;stroke-width:3.50549"
       d="m 61.441562,80.584238 6.387162,-4.397143 3.385008,4.085448 -6.85696,3.918343 z"
       id="path354" /><path
       style="fill:#8400b4;fill-opacity:1;stroke:#8400b4;stroke-width:2.70604;stroke-dasharray:none"
       d="m 6.2765833,52.32988 16.9366957,-8.80056 7.764406,6.625174 C 21.126656,46.000841 12.943755,49.985234 6.2765833,52.32988 Z"
       id="path2078"
       sodipodi:nodetypes="cccc" /><path
       style="fill:#8400b4;fill-opacity:1;stroke:#8400b4;stroke-width:2.70604;stroke-dasharray:none"
       d="m 107.218,44.009038 19.84411,10.243598 c -6.85372,-2.624296 -16.73079,-6.952393 -25.46852,-2.771324 z"
       id="path2548"
       sodipodi:nodetypes="cccc" /><text
       xml:space="preserve"
       transform="scale(0.264585)"
       id="text4066"
       style="fill:#8400b4;-inkscape-font-specification:'monospace, Normal';font-family:monospace;font-size:66.66666667px;stroke:#8400b4;stroke-width:7.34740157;fill-opacity:1;stroke-dasharray:none;white-space:pre;shape-inside:url(#rect4068)" /><g
       aria-label="I"
       id="text4074"
       style="font-size:17.639px;font-family:monospace;-inkscape-font-specification:'monospace, Normal';fill:#8400b4;stroke:#8400b4;stroke-width:0;stroke-dasharray:none"
       transform="matrix(0.0143326,-2.9138852,5.7034495,0.09621834,-441.6579,301.0981)"><path
         d="m 67.459633,82.859003 c 2.16276,1.661141 4.308209,2.061983 7.088328,0 v 1.343596 l -2.601002,1.367555 -0.09454,6.037127 2.69554,1.526784 v 1.343596 c -2.418748,-1.695052 -4.78008,-1.651346 -7.088328,0 V 93.134065 L 70.055,91.700252 70.301915,85.570154 67.459633,84.202599 Z"
         id="path4076"
         style="stroke-width:0;stroke-dasharray:none"
         sodipodi:nodetypes="ccccccccccccc" /></g></g></svg>
