<?xml version="1.0" encoding="UTF-8" standalone="no"?>
<!-- Created with Inkscape (http://www.inkscape.org/) -->

<svg
   width="503"
   height="503"
   viewBox="0 0 133.08626 133.08625"
   version="1.1"
   id="svg5"
   xml:space="preserve"
   inkscape:version="1.2.2 (b0a8486541, 2022-12-01)"
   sodipodi:docname="burguillos-new-logo.svg"
   xmlns:inkscape="http://www.inkscape.org/namespaces/inkscape"
   xmlns:sodipodi="http://sodipodi.sourceforge.net/DTD/sodipodi-0.dtd"
   xmlns="http://www.w3.org/2000/svg"
   xmlns:svg="http://www.w3.org/2000/svg"><sodipodi:namedview
     id="namedview7"
     pagecolor="#ffffff"
     bordercolor="#000000"
     borderopacity="0.25"
     inkscape:showpageshadow="2"
     inkscape:pageopacity="0.0"
     inkscape:pagecheckerboard="0"
     inkscape:deskcolor="#d1d1d1"
     inkscape:document-units="mm"
     showgrid="false"
     inkscape:zoom="1.3932941"
     inkscape:cx="421.30373"
     inkscape:cy="274.1704"
     inkscape:window-width="1920"
     inkscape:window-height="1011"
     inkscape:window-x="0"
     inkscape:window-y="0"
     inkscape:window-maximized="1"
     inkscape:current-layer="layer1" /><defs
     id="defs2"><rect
       x="139.23143"
       y="151.75457"
       width="247.98071"
       height="75.725623"
       id="rect5849" /></defs><g
     inkscape:label="Layer 1"
     inkscape:groupmode="layer"
     id="layer1"><path
       style="fill:#e7e199;fill-opacity:1;stroke:#8400b4;stroke-width:2.16901;stroke-dasharray:none;stroke-opacity:1"
       d="m 27.079878,45.918444 c -7.58595,12.256271 -7.79018,28.382467 1.918861,41.874385 13.858561,19.258191 39.471681,21.761031 39.471681,21.761031 14.179184,-0.30567 32.2061,-6.99075 40.86963,-21.493101 5.87864,-9.840573 7.88717,-23.049909 -0.24759,-41.198755 l 5.66136,-34.193671 -33.975578,7.115275 c -7.239777,-3.04064 -11.657461,-3.00772 -19.61893,-0.213637 L 26.102196,12.65053 Z"
       id="path3088"
       sodipodi:nodetypes="cscscccccc" /><path
       style="fill:#8400b4;fill-opacity:1;stroke:#8400b4;stroke-width:2.16901;stroke-dasharray:none;stroke-opacity:0.00202613"
       d="m 85.24717,23.020327 24.90347,-6.5078 -4.44536,23.992892 z"
       id="path4962" /><path
       style="fill:#8400b4;fill-opacity:1;stroke:#8400b4;stroke-width:3.56902;stroke-dasharray:none;stroke-opacity:0.00202613"
       d="m 69.679114,74.126214 10.015312,7.026033 -8.243461,6.026286"
       id="path6012" /><path
       style="fill:#ffffff;fill-opacity:1;stroke:#8400b4;stroke-width:1.36901;stroke-dasharray:none;stroke-opacity:1"
       d="m 43.045482,58.505921 c 13.632327,-2.271174 20.186024,3.565315 24.320409,12.172815 -8.090849,0.87552 -16.171475,1.799652 -25.682342,-4.077634 l 1.493228,-6.445433 z"
       id="path6018"
       sodipodi:nodetypes="ccccc" /><path
       style="fill:#fbf1ff;fill-opacity:1;stroke:#8400b4;stroke-width:1.36901;stroke-dasharray:none;stroke-opacity:1"
       d="m 103.3718,58.648845 c -15.39773,-0.204 -18.619247,6.709095 -24.320412,12.172815 9.598961,0.746502 19.835851,2.786896 25.682342,-4.077634 l -1.49323,-6.445433 z"
       id="path6018-7"
       sodipodi:nodetypes="ccccc" /><path
       style="fill:#000000;fill-opacity:1;stroke:#8400b4;stroke-width:0.369003;stroke-dasharray:none;stroke-opacity:1"
       d="m 88.914225,62.570942 c -4.283583,4.293687 1.770243,8.038182 1.296652,7.748024 l 4.86097,0.694318 c 3.148078,-3.013408 3.328778,-5.308889 -0.072,-10.165524 z"
       id="path6446"
       sodipodi:nodetypes="ccccc" /><path
       style="fill:#000000;fill-opacity:1;stroke:#8400b4;stroke-width:0.369003;stroke-dasharray:none;stroke-opacity:1"
       d="m 54.387488,60.148248 c -6.309949,0.09719 -6.415832,8.344687 -3.054702,9.055804 4.436344,2.571025 6.934913,0.950086 9.577283,-0.359769 0.841482,-4.881434 -1.550088,-7.637191 -6.522581,-8.696035 z"
       id="path6450"
       sodipodi:nodetypes="cccc" /><path
       style="fill:#000000;fill-opacity:0;stroke:#8400b4;stroke-width:3.56901"
       d="m 46.213674,90.924476 c 24.244747,9.990464 48.338169,1.306299 48.338169,1.306299"
       id="path10181" /></g></svg>
