<?xml version="1.0" encoding="UTF-8" standalone="no"?>
<!-- Created with Inkscape (http://www.inkscape.org/) -->

<svg
   width="120"
   height="120"
   viewBox="0 0 120 120"
   version="1.1"
   id="svg5"
   inkscape:version="1.2.2 (b0a8486541, 2022-12-01)"
   sodipodi:docname="search.svg"
   xmlns:inkscape="http://www.inkscape.org/namespaces/inkscape"
   xmlns:sodipodi="http://sodipodi.sourceforge.net/DTD/sodipodi-0.dtd"
   xmlns="http://www.w3.org/2000/svg"
   xmlns:svg="http://www.w3.org/2000/svg">
  <sodipodi:namedview
     id="namedview7"
     pagecolor="#ffffff"
     bordercolor="#000000"
     borderopacity="0.25"
     inkscape:showpageshadow="2"
     inkscape:pageopacity="0.0"
     inkscape:pagecheckerboard="0"
     inkscape:deskcolor="#d1d1d1"
     inkscape:document-units="px"
     showgrid="false"
     inkscape:zoom="1.6291667"
     inkscape:cx="-122.45524"
     inkscape:cy="118.46547"
     inkscape:window-width="1920"
     inkscape:window-height="1011"
     inkscape:window-x="0"
     inkscape:window-y="0"
     inkscape:window-maximized="1"
     inkscape:current-layer="layer1" />
  <defs
     id="defs2" />
  <g
     inkscape:label="Layer 1"
     inkscape:groupmode="layer"
     id="layer1">
    <g
       id="g1595"
       style="fill:none" />
    <path
       id="path234"
       style="fill:#000000;fill-opacity:1;stroke:#000000;stroke-width:0.406748;opacity:1;stroke-opacity:0.98918414"
       inkscape:label="path234"
       d="M 42.587891 0.98828125 A 41.311115 41.311115 0 0 0 1.2773438 42.298828 A 41.311115 41.311115 0 0 0 42.587891 83.609375 A 41.311115 41.311115 0 0 0 83.900391 42.298828 A 41.311115 41.311115 0 0 0 42.587891 0.98828125 z M 42.101562 7.703125 A 33.820869 33.820869 0 0 1 75.921875 41.523438 A 33.820869 33.820869 0 0 1 42.101562 75.345703 A 33.820869 33.820869 0 0 1 8.2792969 41.523438 A 33.820869 33.820869 0 0 1 42.101562 7.703125 z " />
    <path
       style="fill:#000000;fill-opacity:1;stroke:#000000;stroke-width:0.3"
       d="M 69.229599,73.265986 115.43357,118.34272 118.2149,115.4523 71.943194,71.366409 Z"
       id="path1731"
       sodipodi:nodetypes="ccccc" />
  </g>
</svg>
